####
#
# OBJ File Generated by Meshlab
#
####
# Object HW_PK_Mur_Eclate_Possible_LOD2.obj
#
# Vertices: 52
# Faces: 100
#
####
mtllib ./HW_PK_Mur_Eclate_Possible_LOD2.obj.mtl

vn 3.678112 1.338049 -3.743719
v 0.865691 1.437264 -0.874087 0.752941 0.752941 0.752941
vn -3.714393 1.352713 -3.686568
v -0.871482 1.436976 -0.868198 0.752941 0.752941 0.752941
vn -1.440631 -1.343757 -5.205488
v -0.307133 0.546821 -1.169402 0.752941 0.752941 0.752941
vn -3.709243 -2.055548 -3.718256
v -0.805499 0.414750 -0.806556 0.752941 0.752941 0.752941
vn 1.513738 -1.922397 -5.144138
v 0.285920 0.379958 -1.099881 0.752941 0.752941 0.752941
vn 0.855721 -4.536634 -2.617296
v 0.242040 0.116366 -0.921770 0.752941 0.752941 0.752941
vn 1.387936 1.351564 -5.207566
v 0.310358 1.441028 -1.171759 0.752941 0.752941 0.752941
vn -1.341438 2.111158 -4.809094
v -0.303516 1.562328 -1.140979 0.752941 0.752941 0.752941
vn 0.407274 4.543747 -2.483108
v 0.233212 1.946865 -0.840023 0.752941 0.752941 0.752941
vn -3.686746 1.352640 3.714326
v -0.868238 1.436971 0.871443 0.752941 0.752941 0.752941
vn -5.205745 -1.343367 1.440952
v -1.169393 0.546907 0.307189 0.752941 0.752941 0.752941
vn -3.718150 -2.055556 3.709371
v -0.806546 0.414740 0.805503 0.752941 0.752941 0.752941
vn -5.143958 -1.920429 -1.515574
v -1.099885 0.379999 -0.285913 0.752941 0.752941 0.752941
vn -2.612750 -4.534781 -0.857829
v -0.921896 0.116365 -0.242166 0.752941 0.752941 0.752941
vn -1.780975 -4.788110 -1.979407
v -0.632633 0.118532 -0.644078 0.752941 0.752941 0.752941
vn -5.204990 1.350005 -1.392228
v -1.171778 1.440819 -0.310388 0.752941 0.752941 0.752941
vn -4.809463 2.110924 1.341428
v -1.140985 1.562283 0.303512 0.752941 0.752941 0.752941
vn -2.483046 4.540915 -0.411041
v -0.840148 1.946848 -0.233320 0.752941 0.752941 0.752941
vn 3.743650 1.337972 3.678299
v 0.874048 1.437255 0.865732 0.752941 0.752941 0.752941
vn 5.203955 -1.343911 -1.441758
v 1.169374 0.546649 -0.307159 0.752941 0.752941 0.752941
vn 3.716538 -2.056194 -3.709973
v 0.805812 0.414789 -0.806373 0.752941 0.752941 0.752941
vn 5.143693 -1.922898 1.513392
v 1.099881 0.379922 0.285902 0.752941 0.752941 0.752941
vn 2.666003 -4.549707 0.794962
v 0.921644 0.116368 0.242167 0.752941 0.752941 0.752941
vn 1.917127 -4.112178 2.301781
v 0.751502 0.125292 0.584118 0.752941 0.752941 0.752941
vn 5.207194 1.352026 1.387977
v 1.171731 1.441148 0.310399 0.752941 0.752941 0.752941
vn 4.898956 2.040304 -1.328632
v 1.140971 1.562413 -0.303515 0.752941 0.752941 0.752941
vn 1.909144 4.240704 -1.269681
v 0.616736 1.964124 -0.626620 0.752941 0.752941 0.752941
vn 1.484470 -1.427803 5.111510
v 0.307216 0.546735 1.169366 0.752941 0.752941 0.752941
vn 3.470104 -2.155916 3.742282
v 0.806377 0.414778 0.805802 0.752941 0.752941 0.752941
vn -1.515228 -1.920931 5.143514
v -0.285895 0.379963 1.099885 0.752941 0.752941 0.752941
vn -1.985893 -4.787911 1.792127
v -0.644205 0.118534 0.632507 0.752941 0.752941 0.752941
vn -1.392266 1.350463 5.204620
v -0.310429 1.440939 1.171751 0.752941 0.752941 0.752941
vn 1.328638 2.040046 4.899318
v 0.303510 1.562369 1.140977 0.752941 0.752941 0.752941
vn -0.472099 4.557622 2.480704
v -0.233423 1.946858 0.840032 0.752941 0.752941 0.752941
vn 1.120623 4.994112 2.825825
v 0.401960 1.864897 0.779620 0.752941 0.752941 0.752941
vn -0.903446 5.054833 -2.691390
v -0.276617 1.877992 -0.816952 0.752941 0.752941 0.752941
vn -1.447826 4.274036 -1.911454
v -0.624683 1.964108 -0.618778 0.752941 0.752941 0.752941
vn -2.691764 5.054530 0.903319
v -0.817073 1.877976 0.276491 0.752941 0.752941 0.752941
vn -1.911635 4.274100 1.447627
v -0.618889 1.964107 0.624574 0.752941 0.752941 0.752941
vn 2.480753 4.560454 0.468328
v 0.839906 1.946875 0.233315 0.752941 0.752941 0.752941
vn 2.364610 5.008391 -0.833289
v 0.860400 1.900193 -0.145063 0.752941 0.752941 0.752941
vn 2.825574 4.994317 -1.120629
v 0.779499 1.864912 -0.402087 0.752941 0.752941 0.752941
vn 0.833179 5.007850 2.365082
v 0.144940 1.900179 0.860520 0.752941 0.752941 0.752941
vn 1.269507 4.240774 1.909329
v 0.626511 1.964122 0.616846 0.752941 0.752941 0.752941
vn 0.025575 6.269346 0.004567
v -0.000124 1.897710 -0.000000 0.752941 0.752941 0.752941
vn 0.871130 -5.499747 1.806889
v 0.520686 0.113133 0.600763 0.752941 0.752941 0.752941
vn -0.907339 -4.172905 -2.730806
v -0.224546 0.116396 -0.940285 0.752941 0.752941 0.752941
vn 1.987939 -4.789222 -1.785413
v 0.643316 0.118528 -0.633196 0.752941 0.752941 0.752941
vn -2.736261 -4.172227 0.905904
v -0.940404 0.116394 0.224424 0.752941 0.752941 0.752941
vn 2.729978 -4.174026 -0.909521
v 0.940170 0.116401 -0.224423 0.752941 0.752941 0.752941
vn 1.240273 -3.942594 2.615978
v 0.224301 0.116399 0.940289 0.752941 0.752941 0.752941
vn -0.860755 -4.535552 2.612771
v -0.242292 0.116367 0.921770 0.752941 0.752941 0.752941
# 52 vertices, 0 vertices normals


usemtl material_0
vt -3.733214 -1.971856
vt -3.309322 -0.766351
vt -3.985333 -1.007656
f 3/1/3 2/2/2 8/3/8
vt -4.673247 -1.113665
f 7/4/7 3/1/3 8/3/8
vt -2.624671 -1.455281
f 3/1/3 4/5/4 2/2/2
vt -4.928539 -2.121636
f 5/6/5 3/1/3 7/4/7
vt -5.315978 -0.770312
f 1/7/1 5/6/5 7/4/7
vt -6.004840 -1.452401
f 21/8/21 5/6/5 1/7/1
vt -2.437591 -1.665594
f 3/1/3 15/9/15 4/5/4
vt -3.646337 -2.507143
f 47/10/47 15/9/15 3/1/3
f 5/6/5 47/10/47 3/1/3
vt -5.028209 -2.493736
f 6/11/6 47/10/47 5/6/5
f 21/8/21 6/11/6 5/6/5
vt -6.215158 -1.638310
f 48/12/48 6/11/6 21/8/21
vt -4.879123 -0.329108
f 7/4/7 27/13/27 1/7/1
vt -4.525898 -0.531908
f 9/14/9 27/13/27 7/4/7
f 8/3/8 9/14/9 7/4/7
vt -4.098132 -0.556084
f 36/15/36 9/14/9 8/3/8
f 2/2/2 36/15/36 8/3/8
vt -3.749741 -0.327305
f 37/16/37 36/15/36 2/2/2
vt -2.104780 0.817362
vt -3.311358 1.242399
vt -3.070192 0.566549
f 11/17/11 10/18/10 17/19/17
vt -2.963950 -0.121549
f 16/20/16 11/17/11 17/19/17
vt -2.621035 1.925655
f 11/17/11 12/21/12 10/18/10
vt -1.954686 -0.378246
f 13/22/13 11/17/11 16/20/16
f 2/2/2 13/22/13 16/20/16
f 4/5/4 13/22/13 2/2/2
vt -2.410137 2.112134
f 11/17/11 31/23/31 12/21/12
vt -1.568581 0.903379
f 49/24/49 31/23/31 11/17/11
f 13/22/13 49/24/49 11/17/11
vt -1.581996 -0.478482
f 14/25/14 49/24/49 13/22/13
f 4/5/4 14/25/14 13/22/13
f 15/9/15 14/25/14 4/5/4
f 16/20/16 37/16/37 2/2/2
vt -3.546389 0.026415
f 18/26/18 37/16/37 16/20/16
f 17/19/17 18/26/18 16/20/16
vt -3.522206 0.454182
f 38/27/38 18/26/18 17/19/17
f 10/18/10 38/27/38 17/19/17
vt -3.751005 0.802580
f 39/28/39 38/27/38 10/18/10
vt -6.522534 -0.343400
vt -5.559484 -0.092528
f 20/29/20 1/7/1 26/30/26
vt -5.665327 0.595515
f 25/31/25 20/29/20 26/30/26
f 20/29/20 21/8/21 1/7/1
vt -6.671952 0.852255
f 22/32/22 20/29/20 25/31/25
vt -5.322033 1.238273
f 19/33/19 22/32/22 25/31/25
vt -6.002724 1.928527
f 29/34/29 22/32/22 19/33/19
vt -6.007126 2.287951
vt -6.493261 1.926224
f 46/35/46 24/36/24 29/34/29
f 20/29/20 48/12/48 21/8/21
vt -7.056854 -0.429378
f 50/37/50 48/12/48 20/29/20
f 22/32/22 50/37/50 20/29/20
vt -7.043455 0.952483
f 23/38/23 50/37/50 22/32/22
f 29/34/29 23/38/23 22/32/22
f 24/36/24 23/38/23 29/34/29
vt -4.881429 0.800814
f 25/31/25 44/39/44 19/33/19
vt -5.084216 0.447593
f 40/40/40 44/39/44 25/31/25
f 26/30/26 40/40/40 25/31/25
vt -5.116881 0.108051
f 41/41/41 40/40/40 26/30/26
vt -5.068903 -0.060723
f 42/42/42 41/41/41 26/30/26
f 1/7/1 42/42/42 26/30/26
f 27/13/27 42/42/42 1/7/1
vt -4.893975 2.445904
vt -4.644410 1.481639
f 28/43/28 19/33/19 33/44/33
vt -3.956184 1.587715
f 32/45/32 28/43/28 33/44/33
f 28/43/28 29/34/29 19/33/19
vt -3.698040 2.595635
f 30/46/30 28/43/28 32/45/32
f 10/18/10 30/46/30 32/45/32
f 12/21/12 30/46/30 10/18/10
f 28/43/28 46/35/46 29/34/29
vt -4.979093 2.981137
f 51/47/51 46/35/46 28/43/28
f 30/46/30 51/47/51 28/43/28
vt -3.597245 2.967729
f 52/48/52 51/47/51 30/46/30
f 12/21/12 52/48/52 30/46/30
f 31/23/31 52/48/52 12/21/12
f 32/45/32 39/28/39 10/18/10
vt -4.104719 1.005920
f 34/49/34 39/28/39 32/45/32
f 33/44/33 34/49/34 32/45/32
vt -4.444274 1.038568
f 43/50/43 34/49/34 33/44/33
vt -4.613047 0.990588
f 35/51/35 43/50/43 33/44/33
f 19/33/19 35/51/35 33/44/33
f 44/39/44 35/51/35 19/33/19

usemtl material_1
vt 0.145458 -0.521986
vt 0.403595 0.403609
vt -0.274384 -0.296422
f 9/52/9 45/53/45 27/54/27
vt 0.708761 -0.503798
f 36/55/36 45/53/45 9/52/9
vt 1.102252 -0.275633
f 37/56/37 45/53/45 36/55/36
vt 1.329187 0.145484
f 18/57/18 45/53/45 37/56/37
vt 1.310997 0.708772
f 38/58/38 45/53/45 18/57/18
vt 1.082828 1.102275
f 39/59/39 45/53/45 38/58/38
vt -0.522007 0.661732
vt -0.296445 1.081578
f 40/60/40 45/53/45 44/61/44
vt -0.553770 0.247817
f 41/62/41 45/53/45 40/60/40
vt -0.459335 -0.042887
f 42/63/42 45/53/45 41/62/41
f 27/54/27 45/53/45 42/63/42
vt 0.661706 1.329209
f 34/64/34 45/53/45 39/59/39
vt 0.247804 1.360968
f 43/65/43 45/53/45 34/64/34
vt -0.042898 1.266534
f 35/66/35 45/53/45 43/65/43
f 44/61/44 45/53/45 35/66/35
vt 0.274796 -0.436098
vt 1.012306 1.093665
vt -0.135825 -0.145883
f 47/67/47 46/68/46 15/69/15
vt 0.743373 -0.425039
f 6/70/6 46/68/46 47/67/47
vt 1.146953 -0.136168
f 48/71/48 46/68/46 6/70/6
vt -0.436095 0.726593
vt -0.145885 1.137213
f 49/72/49 46/68/46 31/73/31
vt -0.425040 0.258015
f 14/74/14 46/68/46 49/72/49
f 15/69/15 46/68/46 14/74/14
vt 1.437490 0.274796
f 50/75/50 46/68/46 48/71/48
vt 1.426426 0.743374
f 23/76/23 46/68/46 50/75/50
vt 1.247076 1.079094
f 24/77/24 46/68/46 23/76/23
vt 0.258014 1.426428
vt 0.726593 1.437488
f 52/78/52 46/68/46 51/79/51
f 31/73/31 46/68/46 52/78/52
# 100 faces, 79 coords texture

# End of File
